<?xml version="1.0" standalone="no"?>
<!DOCTYPE svg PUBLIC "-//W3C//DTD SVG 20010904//EN"
 "http://www.w3.org/TR/2001/REC-SVG-20010904/DTD/svg10.dtd">
<svg version="1.0" xmlns="http://www.w3.org/2000/svg"
 width="260.000000pt" height="260.000000pt" viewBox="0 0 260.000000 260.000000"
 preserveAspectRatio="xMidYMid meet">
<metadata>
Created by potrace 1.14, written by Peter Selinger 2001-2017
</metadata>
<g transform="translate(0.000000,260.000000) scale(0.100000,-0.100000)"
fill="#000000" stroke="none">
<path d="M2023 2373 c-88 -93 -172 -181 -187 -198 -15 -16 -47 -50 -70 -75
-23 -25 -91 -101 -151 -170 -60 -69 -112 -127 -115 -130 -3 -3 -45 -50 -95
-105 -49 -55 -94 -105 -100 -111 -5 -6 -49 -53 -96 -105 -48 -52 -105 -114
-127 -138 -39 -45 -40 -45 -66 -28 -18 12 -26 27 -27 50 -7 179 32 294 257
754 123 252 119 238 94 278 -22 35 -95 106 -128 124 -17 9 -23 6 -44 -22 -43
-58 -87 -152 -159 -338 -203 -527 -213 -694 -50 -862 l46 -47 -25 -24 c-14
-13 -36 -36 -49 -52 -14 -16 -61 -70 -105 -119 -83 -93 -124 -140 -205 -234
-126 -148 -247 -288 -266 -306 -41 -41 -155 -187 -155 -199 0 -14 47 -62 54
-55 2 2 27 33 56 69 64 80 115 136 289 315 75 78 223 231 329 342 l193 202 41
-15 c114 -40 359 -67 448 -49 75 15 70 16 59 -13 -85 -218 -209 -591 -239
-720 -7 -29 -9 -63 -6 -77 12 -46 152 -172 171 -153 2 1 5 17 8 33 25 140 53
247 147 560 43 143 97 328 120 410 41 147 144 496 180 605 17 53 129 355 155
415 6 17 26 64 43 105 17 41 38 92 47 112 l15 38 -48 50 c-27 27 -55 50 -63
50 -9 0 -87 -75 -176 -167z m-15 -305 c-17 -40 -48 -120 -70 -178 -21 -58 -43
-114 -47 -125 -22 -49 -123 -331 -143 -400 l-22 -75 -67 -20 c-138 -41 -230
-47 -384 -24 -83 13 -85 7 92 189 147 151 290 303 369 390 55 62 296 315 300
315 1 0 -11 -33 -28 -72z"/>
</g>
</svg>
